<mxfile host="app.diagrams.net" agent="Mozilla/5.0 (Windows NT 10.0; Win64; x64) AppleWebKit/537.36 (KHTML, like Gecko) Chrome/137.0.0.0 Safari/537.36 Edg/137.0.0.0" version="28.2.0">
  <diagram name="ページ1" id="dqCIyOxFAhDGPPeh2m76">
    <mxGraphModel dx="2282" dy="541" grid="1" gridSize="10" guides="1" tooltips="1" connect="1" arrows="1" fold="1" page="1" pageScale="1" pageWidth="827" pageHeight="1169" math="0" shadow="0">
      <root>
        <mxCell id="0" />
        <mxCell id="1" parent="0" />
        <mxCell id="bsJeaZUD1dc_rZA6vz2W-1" value="乗り物" style="html=1;whiteSpace=wrap;" vertex="1" parent="1">
          <mxGeometry x="100" y="70" width="110" height="50" as="geometry" />
        </mxCell>
        <mxCell id="bsJeaZUD1dc_rZA6vz2W-2" value="車" style="html=1;whiteSpace=wrap;" vertex="1" parent="1">
          <mxGeometry x="60" y="190" width="50" height="50" as="geometry" />
        </mxCell>
        <mxCell id="bsJeaZUD1dc_rZA6vz2W-3" value="船" style="html=1;whiteSpace=wrap;" vertex="1" parent="1">
          <mxGeometry x="130" y="190" width="50" height="50" as="geometry" />
        </mxCell>
        <mxCell id="bsJeaZUD1dc_rZA6vz2W-4" value="飛行機" style="html=1;whiteSpace=wrap;" vertex="1" parent="1">
          <mxGeometry x="200" y="190" width="80" height="50" as="geometry" />
        </mxCell>
        <mxCell id="bsJeaZUD1dc_rZA6vz2W-5" value="" style="endArrow=block;html=1;rounded=0;endFill=0;exitX=0.5;exitY=0;exitDx=0;exitDy=0;entryX=0.25;entryY=1;entryDx=0;entryDy=0;" edge="1" parent="1" source="bsJeaZUD1dc_rZA6vz2W-2" target="bsJeaZUD1dc_rZA6vz2W-1">
          <mxGeometry width="50" height="50" relative="1" as="geometry">
            <mxPoint x="130" y="220" as="sourcePoint" />
            <mxPoint x="180" y="170" as="targetPoint" />
          </mxGeometry>
        </mxCell>
        <mxCell id="bsJeaZUD1dc_rZA6vz2W-6" value="" style="endArrow=block;html=1;rounded=0;endFill=0;exitX=0.5;exitY=0;exitDx=0;exitDy=0;entryX=0.5;entryY=1;entryDx=0;entryDy=0;" edge="1" parent="1" source="bsJeaZUD1dc_rZA6vz2W-3" target="bsJeaZUD1dc_rZA6vz2W-1">
          <mxGeometry width="50" height="50" relative="1" as="geometry">
            <mxPoint x="150" y="240" as="sourcePoint" />
            <mxPoint x="203" y="170" as="targetPoint" />
          </mxGeometry>
        </mxCell>
        <mxCell id="bsJeaZUD1dc_rZA6vz2W-7" value="" style="endArrow=block;html=1;rounded=0;endFill=0;exitX=0.5;exitY=0;exitDx=0;exitDy=0;entryX=0.75;entryY=1;entryDx=0;entryDy=0;" edge="1" parent="1" source="bsJeaZUD1dc_rZA6vz2W-4" target="bsJeaZUD1dc_rZA6vz2W-1">
          <mxGeometry width="50" height="50" relative="1" as="geometry">
            <mxPoint x="220" y="210" as="sourcePoint" />
            <mxPoint x="273" y="140" as="targetPoint" />
          </mxGeometry>
        </mxCell>
        <mxCell id="bsJeaZUD1dc_rZA6vz2W-8" value="ドメインモデル" style="text;html=1;align=center;verticalAlign=middle;resizable=0;points=[];autosize=1;strokeColor=none;fillColor=none;" vertex="1" parent="1">
          <mxGeometry x="10" y="10" width="110" height="30" as="geometry" />
        </mxCell>
        <mxCell id="bsJeaZUD1dc_rZA6vz2W-9" value="汎化:is a 関係&lt;span style=&quot;background-color: transparent; color: light-dark(rgb(0, 0, 0), rgb(255, 255, 255)); white-space-collapse: preserve;&quot;&gt;&#x9;&lt;/span&gt;" style="text;html=1;align=center;verticalAlign=middle;resizable=0;points=[];autosize=1;strokeColor=none;fillColor=none;" vertex="1" parent="1">
          <mxGeometry y="60" width="100" height="30" as="geometry" />
        </mxCell>
        <mxCell id="bsJeaZUD1dc_rZA6vz2W-10" value="車" style="html=1;whiteSpace=wrap;" vertex="1" parent="1">
          <mxGeometry x="479" y="70" width="50" height="50" as="geometry" />
        </mxCell>
        <mxCell id="bsJeaZUD1dc_rZA6vz2W-11" value="エンジン" style="html=1;whiteSpace=wrap;" vertex="1" parent="1">
          <mxGeometry x="369" y="160" width="90" height="50" as="geometry" />
        </mxCell>
        <mxCell id="bsJeaZUD1dc_rZA6vz2W-13" value="ボディ" style="html=1;whiteSpace=wrap;" vertex="1" parent="1">
          <mxGeometry x="540" y="160" width="80" height="50" as="geometry" />
        </mxCell>
        <mxCell id="bsJeaZUD1dc_rZA6vz2W-14" value="ハンドル" style="whiteSpace=wrap;html=1;" vertex="1" parent="1">
          <mxGeometry x="470" y="250" width="90" height="60" as="geometry" />
        </mxCell>
        <mxCell id="bsJeaZUD1dc_rZA6vz2W-15" value="ライト" style="whiteSpace=wrap;html=1;" vertex="1" parent="1">
          <mxGeometry x="610" y="250" width="80" height="60" as="geometry" />
        </mxCell>
        <mxCell id="bsJeaZUD1dc_rZA6vz2W-16" value="" style="endArrow=diamondThin;endFill=0;endSize=24;html=1;rounded=0;entryX=0;entryY=1;entryDx=0;entryDy=0;exitX=0.75;exitY=0;exitDx=0;exitDy=0;" edge="1" parent="1" source="bsJeaZUD1dc_rZA6vz2W-11" target="bsJeaZUD1dc_rZA6vz2W-10">
          <mxGeometry width="160" relative="1" as="geometry">
            <mxPoint x="400" y="220" as="sourcePoint" />
            <mxPoint x="560" y="220" as="targetPoint" />
          </mxGeometry>
        </mxCell>
        <mxCell id="bsJeaZUD1dc_rZA6vz2W-17" value="" style="endArrow=diamondThin;endFill=0;endSize=24;html=1;rounded=0;exitX=0.5;exitY=0;exitDx=0;exitDy=0;entryX=1;entryY=1;entryDx=0;entryDy=0;" edge="1" parent="1" source="bsJeaZUD1dc_rZA6vz2W-13" target="bsJeaZUD1dc_rZA6vz2W-10">
          <mxGeometry width="160" relative="1" as="geometry">
            <mxPoint x="580" y="200" as="sourcePoint" />
            <mxPoint x="740" y="200" as="targetPoint" />
          </mxGeometry>
        </mxCell>
        <mxCell id="bsJeaZUD1dc_rZA6vz2W-18" value="" style="endArrow=diamondThin;endFill=0;endSize=24;html=1;rounded=0;exitX=0.5;exitY=0;exitDx=0;exitDy=0;entryX=0.25;entryY=1;entryDx=0;entryDy=0;" edge="1" parent="1" source="bsJeaZUD1dc_rZA6vz2W-14" target="bsJeaZUD1dc_rZA6vz2W-13">
          <mxGeometry width="160" relative="1" as="geometry">
            <mxPoint x="510" y="210" as="sourcePoint" />
            <mxPoint x="670" y="210" as="targetPoint" />
          </mxGeometry>
        </mxCell>
        <mxCell id="bsJeaZUD1dc_rZA6vz2W-19" value="" style="endArrow=diamondThin;endFill=0;endSize=24;html=1;rounded=0;exitX=0.5;exitY=0;exitDx=0;exitDy=0;entryX=0.75;entryY=1;entryDx=0;entryDy=0;" edge="1" parent="1" source="bsJeaZUD1dc_rZA6vz2W-15" target="bsJeaZUD1dc_rZA6vz2W-13">
          <mxGeometry width="160" relative="1" as="geometry">
            <mxPoint x="570" y="210" as="sourcePoint" />
            <mxPoint x="730" y="210" as="targetPoint" />
          </mxGeometry>
        </mxCell>
        <mxCell id="bsJeaZUD1dc_rZA6vz2W-21" value="集約:has a 関係" style="text;html=1;align=center;verticalAlign=middle;resizable=0;points=[];autosize=1;strokeColor=none;fillColor=none;" vertex="1" parent="1">
          <mxGeometry x="340" y="60" width="110" height="30" as="geometry" />
        </mxCell>
        <mxCell id="bsJeaZUD1dc_rZA6vz2W-22" value="金色先生" style="whiteSpace=wrap;html=1;" vertex="1" parent="1">
          <mxGeometry x="40" y="310" width="90" height="60" as="geometry" />
        </mxCell>
        <mxCell id="bsJeaZUD1dc_rZA6vz2W-24" value="" style="endArrow=none;html=1;rounded=0;entryX=0.5;entryY=1;entryDx=0;entryDy=0;exitX=0.5;exitY=0;exitDx=0;exitDy=0;endFill=0;" edge="1" parent="1" source="bsJeaZUD1dc_rZA6vz2W-22" target="bsJeaZUD1dc_rZA6vz2W-2">
          <mxGeometry width="50" height="50" relative="1" as="geometry">
            <mxPoint x="80" y="360" as="sourcePoint" />
            <mxPoint x="130" y="310" as="targetPoint" />
          </mxGeometry>
        </mxCell>
        <mxCell id="bsJeaZUD1dc_rZA6vz2W-26" value="車に&lt;div&gt;こだわり&lt;/div&gt;" style="text;html=1;align=center;verticalAlign=middle;resizable=0;points=[];autosize=1;strokeColor=none;fillColor=none;" vertex="1" parent="1">
          <mxGeometry x="80" y="260" width="70" height="40" as="geometry" />
        </mxCell>
        <mxCell id="bsJeaZUD1dc_rZA6vz2W-28" value="" style="edgeStyle=orthogonalEdgeStyle;rounded=0;orthogonalLoop=1;jettySize=auto;html=1;entryX=0.5;entryY=1;entryDx=0;entryDy=0;endArrow=none;endFill=0;" edge="1" parent="1" source="bsJeaZUD1dc_rZA6vz2W-27" target="bsJeaZUD1dc_rZA6vz2W-3">
          <mxGeometry relative="1" as="geometry" />
        </mxCell>
        <mxCell id="bsJeaZUD1dc_rZA6vz2W-27" value="左近" style="whiteSpace=wrap;html=1;" vertex="1" parent="1">
          <mxGeometry x="110" y="390" width="90" height="60" as="geometry" />
        </mxCell>
        <mxCell id="bsJeaZUD1dc_rZA6vz2W-29" value="&lt;div&gt;船が&lt;/div&gt;欲しい" style="text;html=1;align=center;verticalAlign=middle;resizable=0;points=[];autosize=1;strokeColor=none;fillColor=none;" vertex="1" parent="1">
          <mxGeometry x="150" y="300" width="60" height="40" as="geometry" />
        </mxCell>
        <mxCell id="bsJeaZUD1dc_rZA6vz2W-47" style="edgeStyle=orthogonalEdgeStyle;rounded=0;orthogonalLoop=1;jettySize=auto;html=1;exitX=1;exitY=0.5;exitDx=0;exitDy=0;entryX=0;entryY=0.5;entryDx=0;entryDy=0;endArrow=none;endFill=0;" edge="1" parent="1" source="bsJeaZUD1dc_rZA6vz2W-30" target="bsJeaZUD1dc_rZA6vz2W-46">
          <mxGeometry relative="1" as="geometry" />
        </mxCell>
        <mxCell id="bsJeaZUD1dc_rZA6vz2W-30" value="利用者" style="whiteSpace=wrap;html=1;" vertex="1" parent="1">
          <mxGeometry x="160" y="525" width="100" height="60" as="geometry" />
        </mxCell>
        <mxCell id="bsJeaZUD1dc_rZA6vz2W-31" value="図書カード" style="whiteSpace=wrap;html=1;" vertex="1" parent="1">
          <mxGeometry x="155" y="650" width="110" height="60" as="geometry" />
        </mxCell>
        <mxCell id="bsJeaZUD1dc_rZA6vz2W-32" value="" style="endArrow=diamondThin;endFill=0;endSize=24;html=1;rounded=0;exitX=0.5;exitY=0;exitDx=0;exitDy=0;entryX=0.5;entryY=1;entryDx=0;entryDy=0;" edge="1" parent="1" source="bsJeaZUD1dc_rZA6vz2W-31" target="bsJeaZUD1dc_rZA6vz2W-30">
          <mxGeometry width="160" relative="1" as="geometry">
            <mxPoint x="160" y="670" as="sourcePoint" />
            <mxPoint x="205" y="630" as="targetPoint" />
          </mxGeometry>
        </mxCell>
        <mxCell id="bsJeaZUD1dc_rZA6vz2W-33" value="" style="endArrow=diamondThin;endFill=0;endSize=24;html=1;rounded=0;exitX=0.5;exitY=0;exitDx=0;exitDy=0;entryX=0.75;entryY=1;entryDx=0;entryDy=0;" edge="1" parent="1" source="bsJeaZUD1dc_rZA6vz2W-34" target="bsJeaZUD1dc_rZA6vz2W-31">
          <mxGeometry width="160" relative="1" as="geometry">
            <mxPoint x="190" y="780" as="sourcePoint" />
            <mxPoint x="235" y="740" as="targetPoint" />
          </mxGeometry>
        </mxCell>
        <mxCell id="bsJeaZUD1dc_rZA6vz2W-34" value="ID" style="whiteSpace=wrap;html=1;" vertex="1" parent="1">
          <mxGeometry x="300" y="780" width="60" height="60" as="geometry" />
        </mxCell>
        <mxCell id="bsJeaZUD1dc_rZA6vz2W-35" value="パスワード" style="whiteSpace=wrap;html=1;" vertex="1" parent="1">
          <mxGeometry x="374" y="700" width="80" height="60" as="geometry" />
        </mxCell>
        <mxCell id="bsJeaZUD1dc_rZA6vz2W-36" value="" style="endArrow=diamondThin;endFill=0;endSize=24;html=1;rounded=0;exitX=0;exitY=0.5;exitDx=0;exitDy=0;entryX=1;entryY=1;entryDx=0;entryDy=0;" edge="1" parent="1" source="bsJeaZUD1dc_rZA6vz2W-35" target="bsJeaZUD1dc_rZA6vz2W-31">
          <mxGeometry width="160" relative="1" as="geometry">
            <mxPoint x="230" y="770" as="sourcePoint" />
            <mxPoint x="275" y="730" as="targetPoint" />
          </mxGeometry>
        </mxCell>
        <mxCell id="bsJeaZUD1dc_rZA6vz2W-37" value="氏名" style="whiteSpace=wrap;html=1;" vertex="1" parent="1">
          <mxGeometry x="40" y="700" width="60" height="60" as="geometry" />
        </mxCell>
        <mxCell id="bsJeaZUD1dc_rZA6vz2W-39" value="住所" style="whiteSpace=wrap;html=1;" vertex="1" parent="1">
          <mxGeometry x="40" y="780" width="60" height="60" as="geometry" />
        </mxCell>
        <mxCell id="bsJeaZUD1dc_rZA6vz2W-40" value="電話番号" style="whiteSpace=wrap;html=1;" vertex="1" parent="1">
          <mxGeometry x="110" y="780" width="80" height="60" as="geometry" />
        </mxCell>
        <mxCell id="bsJeaZUD1dc_rZA6vz2W-41" value="電子メール&lt;div&gt;アドレス&lt;/div&gt;" style="whiteSpace=wrap;html=1;" vertex="1" parent="1">
          <mxGeometry x="200" y="780" width="90" height="60" as="geometry" />
        </mxCell>
        <mxCell id="bsJeaZUD1dc_rZA6vz2W-42" value="" style="endArrow=diamondThin;endFill=0;endSize=24;html=1;rounded=0;exitX=0.5;exitY=0;exitDx=0;exitDy=0;entryX=0.5;entryY=1;entryDx=0;entryDy=0;" edge="1" parent="1" source="bsJeaZUD1dc_rZA6vz2W-41" target="bsJeaZUD1dc_rZA6vz2W-31">
          <mxGeometry width="160" relative="1" as="geometry">
            <mxPoint x="329" y="810" as="sourcePoint" />
            <mxPoint x="220" y="740" as="targetPoint" />
          </mxGeometry>
        </mxCell>
        <mxCell id="bsJeaZUD1dc_rZA6vz2W-43" value="" style="endArrow=diamondThin;endFill=0;endSize=24;html=1;rounded=0;exitX=0.5;exitY=0;exitDx=0;exitDy=0;entryX=0.5;entryY=1;entryDx=0;entryDy=0;" edge="1" parent="1" source="bsJeaZUD1dc_rZA6vz2W-40" target="bsJeaZUD1dc_rZA6vz2W-31">
          <mxGeometry width="160" relative="1" as="geometry">
            <mxPoint x="289" y="810" as="sourcePoint" />
            <mxPoint x="180" y="740" as="targetPoint" />
          </mxGeometry>
        </mxCell>
        <mxCell id="bsJeaZUD1dc_rZA6vz2W-44" value="" style="endArrow=diamondThin;endFill=0;endSize=24;html=1;rounded=0;exitX=0.5;exitY=0;exitDx=0;exitDy=0;entryX=0.25;entryY=1;entryDx=0;entryDy=0;" edge="1" parent="1" source="bsJeaZUD1dc_rZA6vz2W-39" target="bsJeaZUD1dc_rZA6vz2W-31">
          <mxGeometry width="160" relative="1" as="geometry">
            <mxPoint x="219" y="800" as="sourcePoint" />
            <mxPoint x="110" y="730" as="targetPoint" />
          </mxGeometry>
        </mxCell>
        <mxCell id="bsJeaZUD1dc_rZA6vz2W-45" value="" style="endArrow=diamondThin;endFill=0;endSize=24;html=1;rounded=0;exitX=1;exitY=0.5;exitDx=0;exitDy=0;entryX=0;entryY=1;entryDx=0;entryDy=0;" edge="1" parent="1" source="bsJeaZUD1dc_rZA6vz2W-37" target="bsJeaZUD1dc_rZA6vz2W-31">
          <mxGeometry width="160" relative="1" as="geometry">
            <mxPoint x="159" y="800" as="sourcePoint" />
            <mxPoint x="50" y="730" as="targetPoint" />
          </mxGeometry>
        </mxCell>
        <mxCell id="bsJeaZUD1dc_rZA6vz2W-46" value="図書" style="whiteSpace=wrap;html=1;" vertex="1" parent="1">
          <mxGeometry x="439" y="525" width="90" height="60" as="geometry" />
        </mxCell>
        <mxCell id="bsJeaZUD1dc_rZA6vz2W-48" value="検索" style="text;html=1;align=center;verticalAlign=middle;resizable=0;points=[];autosize=1;strokeColor=none;fillColor=none;" vertex="1" parent="1">
          <mxGeometry x="320" y="525" width="50" height="30" as="geometry" />
        </mxCell>
        <mxCell id="bsJeaZUD1dc_rZA6vz2W-82" style="rounded=0;orthogonalLoop=1;jettySize=auto;html=1;exitX=1;exitY=0.5;exitDx=0;exitDy=0;entryX=0;entryY=0.5;entryDx=0;entryDy=0;endArrow=none;endFill=0;" edge="1" parent="1" source="bsJeaZUD1dc_rZA6vz2W-49" target="bsJeaZUD1dc_rZA6vz2W-30">
          <mxGeometry relative="1" as="geometry" />
        </mxCell>
        <mxCell id="bsJeaZUD1dc_rZA6vz2W-49" value="貸し出し予約" style="whiteSpace=wrap;html=1;" vertex="1" parent="1">
          <mxGeometry x="20" y="510" width="100" height="60" as="geometry" />
        </mxCell>
        <mxCell id="bsJeaZUD1dc_rZA6vz2W-50" value="貸し出し期限" style="whiteSpace=wrap;html=1;" vertex="1" parent="1">
          <mxGeometry x="-120" y="780" width="100" height="60" as="geometry" />
        </mxCell>
        <mxCell id="bsJeaZUD1dc_rZA6vz2W-51" value="" style="endArrow=diamondThin;endFill=0;endSize=24;html=1;rounded=0;exitX=0.5;exitY=0;exitDx=0;exitDy=0;entryX=0.5;entryY=1;entryDx=0;entryDy=0;" edge="1" parent="1" source="bsJeaZUD1dc_rZA6vz2W-50" target="bsJeaZUD1dc_rZA6vz2W-65">
          <mxGeometry width="160" relative="1" as="geometry">
            <mxPoint x="529" y="770" as="sourcePoint" />
            <mxPoint x="300" y="770" as="targetPoint" />
          </mxGeometry>
        </mxCell>
        <mxCell id="bsJeaZUD1dc_rZA6vz2W-54" value="著者" style="whiteSpace=wrap;html=1;" vertex="1" parent="1">
          <mxGeometry x="333.5" y="620" width="61" height="60" as="geometry" />
        </mxCell>
        <mxCell id="bsJeaZUD1dc_rZA6vz2W-55" value="著名" style="whiteSpace=wrap;html=1;" vertex="1" parent="1">
          <mxGeometry x="409" y="620" width="61" height="60" as="geometry" />
        </mxCell>
        <mxCell id="bsJeaZUD1dc_rZA6vz2W-57" value="" style="endArrow=diamondThin;endFill=0;endSize=24;html=1;rounded=0;exitX=0.5;exitY=0;exitDx=0;exitDy=0;entryX=0;entryY=1;entryDx=0;entryDy=0;" edge="1" parent="1" source="bsJeaZUD1dc_rZA6vz2W-54" target="bsJeaZUD1dc_rZA6vz2W-46">
          <mxGeometry width="160" relative="1" as="geometry">
            <mxPoint x="500" y="740" as="sourcePoint" />
            <mxPoint x="440" y="610" as="targetPoint" />
          </mxGeometry>
        </mxCell>
        <mxCell id="bsJeaZUD1dc_rZA6vz2W-58" value="" style="endArrow=diamondThin;endFill=0;endSize=24;html=1;rounded=0;exitX=0.5;exitY=0;exitDx=0;exitDy=0;entryX=0.25;entryY=1;entryDx=0;entryDy=0;" edge="1" parent="1" source="bsJeaZUD1dc_rZA6vz2W-55" target="bsJeaZUD1dc_rZA6vz2W-46">
          <mxGeometry width="160" relative="1" as="geometry">
            <mxPoint x="550" y="740" as="sourcePoint" />
            <mxPoint x="490" y="610" as="targetPoint" />
          </mxGeometry>
        </mxCell>
        <mxCell id="bsJeaZUD1dc_rZA6vz2W-60" value="貸し出し中か" style="whiteSpace=wrap;html=1;" vertex="1" parent="1">
          <mxGeometry x="490" y="620" width="100" height="60" as="geometry" />
        </mxCell>
        <mxCell id="bsJeaZUD1dc_rZA6vz2W-61" value="どこの棚にあるか" style="whiteSpace=wrap;html=1;" vertex="1" parent="1">
          <mxGeometry x="610" y="620" width="120" height="60" as="geometry" />
        </mxCell>
        <mxCell id="bsJeaZUD1dc_rZA6vz2W-62" value="" style="endArrow=diamondThin;endFill=0;endSize=24;html=1;rounded=0;exitX=0.5;exitY=0;exitDx=0;exitDy=0;entryX=0.75;entryY=1;entryDx=0;entryDy=0;" edge="1" parent="1" source="bsJeaZUD1dc_rZA6vz2W-60" target="bsJeaZUD1dc_rZA6vz2W-46">
          <mxGeometry width="160" relative="1" as="geometry">
            <mxPoint x="550" y="625" as="sourcePoint" />
            <mxPoint x="607" y="590" as="targetPoint" />
          </mxGeometry>
        </mxCell>
        <mxCell id="bsJeaZUD1dc_rZA6vz2W-63" value="" style="endArrow=diamondThin;endFill=0;endSize=24;html=1;rounded=0;exitX=0.5;exitY=0;exitDx=0;exitDy=0;entryX=1;entryY=1;entryDx=0;entryDy=0;" edge="1" parent="1" source="bsJeaZUD1dc_rZA6vz2W-61" target="bsJeaZUD1dc_rZA6vz2W-46">
          <mxGeometry width="160" relative="1" as="geometry">
            <mxPoint x="570" y="575" as="sourcePoint" />
            <mxPoint x="627" y="540" as="targetPoint" />
          </mxGeometry>
        </mxCell>
        <mxCell id="bsJeaZUD1dc_rZA6vz2W-64" value="・図書 has a 著名&lt;div&gt;・図書 has a 著者&lt;/div&gt;&lt;div&gt;・図書 has a 貸し出し中&lt;/div&gt;&lt;div&gt;・図書 has a どこの棚にあるか&lt;/div&gt;" style="text;html=1;align=center;verticalAlign=middle;resizable=0;points=[];autosize=1;strokeColor=none;fillColor=none;" vertex="1" parent="1">
          <mxGeometry x="555" y="485" width="190" height="70" as="geometry" />
        </mxCell>
        <mxCell id="bsJeaZUD1dc_rZA6vz2W-65" value="借りている本" style="whiteSpace=wrap;html=1;" vertex="1" parent="1">
          <mxGeometry x="-90" y="650" width="120" height="60" as="geometry" />
        </mxCell>
        <mxCell id="bsJeaZUD1dc_rZA6vz2W-66" value="" style="endArrow=diamondThin;endFill=0;endSize=24;html=1;rounded=0;exitX=1;exitY=0.5;exitDx=0;exitDy=0;entryX=0;entryY=0.5;entryDx=0;entryDy=0;" edge="1" parent="1" source="bsJeaZUD1dc_rZA6vz2W-65" target="bsJeaZUD1dc_rZA6vz2W-31">
          <mxGeometry width="160" relative="1" as="geometry">
            <mxPoint x="110" y="705" as="sourcePoint" />
            <mxPoint x="110" y="640" as="targetPoint" />
          </mxGeometry>
        </mxCell>
        <mxCell id="bsJeaZUD1dc_rZA6vz2W-68" value="著者" style="whiteSpace=wrap;html=1;" vertex="1" parent="1">
          <mxGeometry x="-201" y="710" width="61" height="60" as="geometry" />
        </mxCell>
        <mxCell id="bsJeaZUD1dc_rZA6vz2W-69" value="" style="endArrow=diamondThin;endFill=0;endSize=24;html=1;rounded=0;exitX=0.5;exitY=0;exitDx=0;exitDy=0;entryX=0;entryY=0.5;entryDx=0;entryDy=0;" edge="1" parent="1" source="bsJeaZUD1dc_rZA6vz2W-68" target="bsJeaZUD1dc_rZA6vz2W-65">
          <mxGeometry width="160" relative="1" as="geometry">
            <mxPoint x="-82" y="825" as="sourcePoint" />
            <mxPoint x="-143" y="670" as="targetPoint" />
          </mxGeometry>
        </mxCell>
        <mxCell id="bsJeaZUD1dc_rZA6vz2W-70" value="" style="endArrow=diamondThin;endFill=0;endSize=24;html=1;rounded=0;exitX=1;exitY=0.5;exitDx=0;exitDy=0;entryX=0;entryY=1;entryDx=0;entryDy=0;" edge="1" parent="1" source="bsJeaZUD1dc_rZA6vz2W-71" target="bsJeaZUD1dc_rZA6vz2W-65">
          <mxGeometry width="160" relative="1" as="geometry">
            <mxPoint x="-142" y="705" as="sourcePoint" />
            <mxPoint x="-120" y="670" as="targetPoint" />
          </mxGeometry>
        </mxCell>
        <mxCell id="bsJeaZUD1dc_rZA6vz2W-71" value="著名" style="whiteSpace=wrap;html=1;" vertex="1" parent="1">
          <mxGeometry x="-200" y="780" width="60" height="60" as="geometry" />
        </mxCell>
        <mxCell id="bsJeaZUD1dc_rZA6vz2W-72" value="あと何冊借りる&lt;div&gt;ことができるか&lt;/div&gt;" style="whiteSpace=wrap;html=1;" vertex="1" parent="1">
          <mxGeometry x="374" y="780" width="100" height="60" as="geometry" />
        </mxCell>
        <mxCell id="bsJeaZUD1dc_rZA6vz2W-75" value="" style="endArrow=diamondThin;endFill=0;endSize=24;html=1;rounded=0;exitX=0;exitY=0;exitDx=0;exitDy=0;entryX=1;entryY=1;entryDx=0;entryDy=0;" edge="1" parent="1" source="bsJeaZUD1dc_rZA6vz2W-72" target="bsJeaZUD1dc_rZA6vz2W-31">
          <mxGeometry width="160" relative="1" as="geometry">
            <mxPoint x="417" y="875" as="sourcePoint" />
            <mxPoint x="439" y="840" as="targetPoint" />
          </mxGeometry>
        </mxCell>
        <mxCell id="bsJeaZUD1dc_rZA6vz2W-76" value="必要事項" style="whiteSpace=wrap;html=1;" vertex="1" parent="1">
          <mxGeometry x="-160" y="510" width="90" height="60" as="geometry" />
        </mxCell>
        <mxCell id="bsJeaZUD1dc_rZA6vz2W-80" value="" style="endArrow=diamondThin;endFill=0;endSize=24;html=1;rounded=0;exitX=1;exitY=0.5;exitDx=0;exitDy=0;entryX=0;entryY=0.5;entryDx=0;entryDy=0;" edge="1" parent="1" source="bsJeaZUD1dc_rZA6vz2W-76" target="bsJeaZUD1dc_rZA6vz2W-49">
          <mxGeometry width="160" relative="1" as="geometry">
            <mxPoint x="-20" y="600" as="sourcePoint" />
            <mxPoint x="105" y="600" as="targetPoint" />
          </mxGeometry>
        </mxCell>
        <mxCell id="bsJeaZUD1dc_rZA6vz2W-81" value="連絡を受ける" style="text;html=1;align=center;verticalAlign=middle;resizable=0;points=[];autosize=1;strokeColor=none;fillColor=none;" vertex="1" parent="1">
          <mxGeometry x="20" y="585" width="100" height="30" as="geometry" />
        </mxCell>
        <mxCell id="bsJeaZUD1dc_rZA6vz2W-83" value="※本のID" style="whiteSpace=wrap;html=1;" vertex="1" parent="1">
          <mxGeometry x="-210" y="630" width="70" height="60" as="geometry" />
        </mxCell>
        <mxCell id="bsJeaZUD1dc_rZA6vz2W-85" value="" style="endArrow=diamondThin;endFill=0;endSize=24;html=1;rounded=0;exitX=1;exitY=0.5;exitDx=0;exitDy=0;entryX=0;entryY=0.25;entryDx=0;entryDy=0;" edge="1" parent="1" source="bsJeaZUD1dc_rZA6vz2W-83" target="bsJeaZUD1dc_rZA6vz2W-65">
          <mxGeometry width="160" relative="1" as="geometry">
            <mxPoint x="-130" y="630" as="sourcePoint" />
            <mxPoint x="-5" y="630" as="targetPoint" />
          </mxGeometry>
        </mxCell>
      </root>
    </mxGraphModel>
  </diagram>
</mxfile>
